/* XPM */
static char * tux_xpm[] = {
"100 121 59 1",
" 	c None",
".	c #FFFFFF",
"+	c #C7C7C7",
"@	c #8F8F8F",
"#	c #575757",
"$	c #3B3B3B",
"%	c #1F1F1F",
"&	c #494949",
"*	c #737373",
"=	c #ABABAB",
"-	c #F1F1F1",
";	c #E3E3E3",
">	c #2D2D2D",
",	c #818181",
"'	c #B9B9B9",
")	c #D5D5D5",
"!	c #656565",
"~	c #9D9D9D",
"{	c #FFFFFF",
"]	c #715F29",
"^	c #997817",
"/	c #C29615",
"(	c #A78216",
"_	c #705B1A",
":	c #736F64",
"<	c #55471C",
"[	c #DDAA13",
"}	c #F8BE11",
"|	c #3A331D",
"1	c #8C6F18",
"2	c #B48C15",
"3	c #2D291E",
"4	c #EAB412",
"5	c #716338",
"6	c #575348",
"7	c #49453A",
"8	c #483D1C",
"9	c #CFA014",
"0	c #63511B",
"a	c #7E6519",
"b	c #7E6928",
"c	c #726B55",
"d	c #817D72",
"e	c #726746",
"f	c #FCFCFC",
"g	c #F9F9F9",
"h	c #FDFDFD",
"i	c #F6F6F6",
"j	c #EEEEEE",
"k	c #E9E9E9",
"l	c #E6E6E6",
"m	c #EFEFEF",
"n	c #FAFAFA",
"o	c #E8E8E8",
"p	c #F7F7F7",
"q	c #F3F3F3",
"r	c #ECECEC",
"s	c #F4F4F4",
"t	c #EBEBEB",
"                                             +@#$%%%%%%%&*=-                                        ",
"                                          ;*>%%%%%%%%%%%%%%%*;                                      ",
"                                        -*%%%%%%%%%%%%%%%%%%%%,                                     ",
"                                       '>%%%%%%%%%%%%%%%%%%%%%%&-                                   ",
"                                      =%%%%%%%%%%%%%%%%%%%%%%%%%&-                                  ",
"                                     '%%%%%%%%%%%%%%%%%%%%%%%%%%%&                                  ",
"                                    ;>%%%%%%%%%%%%%%%%%%%%%%%%%%%%,                                 ",
"                                    #%%%%%%%%%%%%%%%%%%%%%%%%%%%%%%)                                ",
"                                   +%%%%%%%%%%%%%%%%%%%%%%%%%%%%%%%#                                ",
"                                   !%%%%%%%%%%%%%%%%%%%%%%%%%%%%%%%%;                               ",
"                                  -%%%%%%%%%%%%%%%%%%%%%%%%%%%%%%%%%,                               ",
"                                  =%%%%%%%%%%%%%%%%%%%%%%%%%%%%%%%%%$                               ",
"                                  !%%%%%%%%%%%%%%%%%%%%%%%%%%%%%%%%%%)                              ",
"                                  $%%%%%%%%%%%%%%%%%%%%%%%%%%%%%%%%%%~                              ",
"                                  %%%%%%%%%%%%%%%%%%%%%%%%%%%%%%%%%%%!                              ",
"                                 +%%%%%%%%%%%%%%%%%%%%%%%%%%%%%%%%%%%$                              ",
"                                 +%%%%%%%%%%%%%%%%%%%&*,#%%%%%%%%%%%%%                              ",
"                                 ~%%%%%&#>%%%%%%%%%>+{{{{;&%%%%%%%%%%%+                             ",
"                                 @%%%>+{{-*%%%%%%%>){{{{{{-&%%%%%%%%%%+                             ",
"                                 @%%%+{{{{{!%%%%%%'{{{{{{{{->%%%%%%%%%~                             ",
"                                 @%%#{{{{{{->%%%%&{{{{{{{{{{@%%%%%%%%%@                             ",
"                                 @%%={{{{{{{*%%%%={{{{=~{{{{;%%%%%%%%%@                             ",
"                                 @%%;{{'~-{{'%%%%){{{*%%*{{{{$%%%%%%%%@                             ",
"                                 @%%{{->%*{{;%%%%{{{)%%%%){{{#%%%%%%%%@                             ",
"                                 ~%%{{=%%%-{{%%%%{{{@%%%%@{{{#%%%%%%%%#                             ",
"                                 +%%{{@%%%+{{%%%%{{{!%%%%@{{{#%%%%%%%%#                             ",
"                                 +%%+{'%%%'@]^//(_:=,%%%%@{{{$%%%%%%%%#                             ",
"                                 +%%,{->%%<[}}}}}}}(|%%%%){{;%%%%%%%%%#                             ",
"                                 )%%${{=%1}2<1}}1<2}}13%~{{{@%%%%%%%%%!                             ",
"                                  %%%@{~(}}^14}}41^}}}4(5@;;>%%%%%%%%%@                             ",
"                                  %%%%6/}}}}}}}}}}}}}}}}}[17%%%%%%%%%%@                             ",
"                                  %%%<4}}}}}}}}}}}}}}}}}}}}48%%%%%%%%%@                             ",
"                                 -%%_}}}}}}}}}}}}}}}}}}}}99}43%%%%%%%%!                             ",
"                                 +%3}(4}}}}}}}}}}}}}}}}}932}}<%%%%%%%%#                             ",
"                                 +%8}_0}}}}}}}}}}}}}}}}(3(}}}<%%%%%%%%>                             ",
"                                 @%%[4804}}}}}}}}}}}}40|/}}}4%%%%%%%%%%;                            ",
"                                 *%%0}4_89}}}}}}}}}413a4}}}}]&%%%%%%%%%~                            ",
"                                 $%%%_}}^314}}}}}[13_[}}}}4b)~%%%%%%%%%&                            ",
"                                ;%%%%#5[}[_3<11a8|a[}}}}}(c;{;%%%%%%%%%%)                           ",
"                                ~%%%%@-,(}}}/(129}}}}}[ac+{{{{$%%%%%%%%%*                           ",
"                                &%%%%'{{=b}}}}}}}}}}}1d;{{{{{{,%%%%%%%%%%+                          ",
"                               )%%%%%+{{{)]4}}}}}}}/e+{{{{{{{{)%%%%%%%%%%#                          ",
"                               *%%%%%{{{{{;d1/4}/^5={{{{{{{{{{{$%%%%%%%%%%~                         ",
"                              ;%%%%%&{{{{{{{;~@@~){{{{{{{{{{{{{,%%%%%%%%%%>)                        ",
"                              #%%%%%,{{{{{{{{{{{{{{{{{{{{{{{{{{)%%%%%%%%%%%&-                       ",
"                             '%%%%%%'{{{{{{{{{{{{{{{{{{{{{{{{{{{&%%%%%%%%%%%*                       ",
"                            ->%%%%%%{{{{{{{{{{{{{{{{{{{{{{{{{{{{~%%%%%%%%%%%%=                      ",
"                            !%%%%%%!{{{{{{{{{{{{{{{{{{{{{{{{{{{{-%%%%%%%%%%%%%)                     ",
"                           ,%%%%%%%={{{{{{{{{{{{{{{{{{{{{{{{{{{{{*%%%%%%%%%%%%>-                    ",
"                          =%%%%%%%>-{{{{{{{{{{{{{{{{{{{{{{{{{{{{{+%%%%%%%%%%%%%&-                   ",
"                         )>%%%%%%%*{{{{{{{{{{{{{{{{{{{{{{{{{{{{{{{$%%%%%%%%%%%%%*                   ",
"                        -&%%%%%%%%+{{{{{{{{{{{{{{{{{{{{{{{{{{{{{{{~%%%%%%%%%%%%%%~                  ",
"                        *%%%%%%%%${{{{{{{{{{{{{{{{{{{{{{{{{{{{{{{{->%%%%%%%%%%%%%%)                 ",
"                       '%%%%%%%%%~{{{{{{{{{{{{{{{{{{{{{{{{{{{{{{{{{*%%%,=%%%%%%%%%&-                ",
"                      ;>%%%%%%%%>-{{{{{{{{{{{{{{{{{{{{{{{{{{{{{{{{{;%%%>)=%%%%%%%%%,                ",
"                      #%%%%@>%%%*{{{{{{{{{{{{{{{{{{{{{{{{{{{{{{{{{{{*%%%>),%%%%%%%%%+               ",
"                     ~%%%%$)%%%%;{{{{{{{{{{{{{{{{{{{{{{{{{{{{{{{{{{{+%%%%>-!%%%%%%%%$-              ",
"                    ->%%%%+*%%%#{{{{{{{{{{{{{{{{{{{{{{{{{{{{{{{{{{{{{#%%%%#->%%%%%%%%@              ",
"                    !%%%%!;%%%%+{{{{{{{{{{{{{{{{{{{{{{{{{{{{{{{{{{{{{+%%%%%='%%%%%%%%%;             ",
"                   +%%%%%;!%%%#{{{{{{{{{{{{{{{{{{{{{{{{{{{{{{{{{{{{{{{*%%%%>-!%%%%%%%%#             ",
"                   &%%%%*+%%%%={{{{{{{{{{{{{{{{{{fgh{{{{{{{{{{{{{{{{{{;%%%%%@;%%%%%%%%%+            ",
"                  =%%%%%;#%%%${{{{{{{{{{{{{{hijklllllkmih{{{{{{{{{{{{{{*%%%%>-*%%%%%%%%#            ",
"                  $%%%%*)%%%%={{{{{{{{{{{{nmllllllllllllomf{{{{{{{{{{{{;%%%%%~;%%%%%%%%%+           ",
"                 =%%%%%;*%%%>{{{{{{{{{{{hmlllllllllllllllll-h{{{{{{{{{{{#%%%%&{*%%%%%%%%!           ",
"                 $%%%%#{>%%%@{{{{{{{{{{polllllllllllllllllllkn{{{{{{{{{{'%%%%%;'%%%%%%%%%;          ",
"                =%%%%%='%%%%-{{{{{{{{{qllllllllllllllllllllllli{{{{{{{{{{$%%%%~{>%%%%%%%%@          ",
"                &%%%%>{*%%%*{{{{{{{{{mllllllllllllllllllllllllli{{{{{{{{{@%%%%*{!%%%%%%%%$          ",
"               )%%%%%*{$%%%'{{{{{{{{mllllllllllllllllllllllllllli{{{{{{{{;%%%%#{~%%%%%%%%%)         ",
"               *%%%%%=-%%%>{{{{{{{{-llllllllllllllllllllllllllllli{{{{{{{{&%%%>{+%%%%%%%%%@         ",
"               >%%%%%;+%%%*{{{{{{{illllllllllllllllllllllllllllllln{{{{{{{@%%%%{-%%%%%%%%%#         ",
"              '%%%%%%{+%%%={{{{{{folllllllllllllllllllllllllllllllkh{{{{{{)%%%>{{%%%%%%%%%%         ",
"              ,%%%%%#{+%%%;{{{{{{rlllllllllllllllllllllllllllllllllj{{{{{{{>%%#{{%%%%%%%%%%)        ",
"              $%%%%%#{+%%${{{{{{slllllllllllllllllllllllllllllllllllg{{{{{{!%%*{{%%%%%%%%%%'        ",
"             -%%%%%%#{+%%!{{{{{holllllllllllllllllllllllllllllllllllk{{{{{{@%%={-%%%%%%%%%%@        ",
"             +%%%%%%#{-%%@{{{{{-llllllllllllllllllllllllllllllllllllli{{{{{-+@-{+%%%%%%%%%%@        ",
"             @%%%%%%#{{&%'{{{{fllllllllllllllllllllllllllllllllllllllk{{{{{{{{{{)$%%%%%%%%%@        ",
"             ,%%%%%%%{{~%+{{{{-llllllllllllllllllllllllllllllllllllllli{{{;~@@+{{{=$%%%%%%%@        ",
"             #%%%%%%%+{->-{{{holllllllllllllllllllllllllllllllllllllllk{{=%%%%%>*;{{@%%%%%%@        ",
"             #%%%%%%%*{{@{{{{illllllllllllllllllllllllllllllllllllllllln;>%%%%%%%%*;{)>%%%%@        ",
"             #%%%%%%%>-{{{{{{tllllllllllllllllllllllllllllllllllllllllon~%%%%%%%%%%%@{)>%%%@        ",
"             #%%%%%%%%*{{{{{flllllllllllllllllllllllllllllllllllllllljh-*%%%%%%%%%%%%*{=%%%+        ",
"             #%%%%%%%%%={{{{slllllllllllllllllllllllllllllllllllllllm{'>%%%%%%%%%%%%%%=-%%%;        ",
"             !%|1110%%%>){{{rllllllllllllllllllllllllllllllllllllllt{=%10%%%%%%%%%%%%%#{%%$         ",
"            ,%_4}}}}98%%%={{ollllllllllllllllllllllllllllllllllllllg)%(}1%%%%%%%%%%%%%*;%%*         ",
"           '%0}}}}}}}48%%%!-hjllllllllllllllllllllllllllllllllllllr{#0}}9%%%%%%%%%%%%%%%%%$'        ",
"          ;>|4}}}}}}}}48%%%>'{pollllllllllllllllllllllllllllllllllp)%9}}}|%%%%%%%%%%%^///1|%,       ",
"          &%9}}}}}}}}}}9%%%%%!-ftlllllllllllllllllllllllllllllllllh@|}}}}(%%%%%%%%%3(}}}}}40%'      ",
"        -!%^}}}}}}}}}}}}_%%%%%$){mlllllllllllllllllllllllllllllllr{#a}}}}}_%%%%%%%<9}}}}}}}4|$      ",
"      ;,>%a}}}}}}}}}}}}}[%%%%%%%={mllllllllllllllllllllllllllllll-{%(}}}}}}a%%%%0/}}}}}}}}}}1%)     ",
"    =&%%8/}}}}}}}}}}}}}}}1%%%%%%%~{mlllllllllllllllllllllllllllllq;%/}}}}}}}4//}}}}}}}}}}}}}[%@     ",
"  )$%|a9}}}}}}}}}}}}}}}}}43%%%%%%%@{mllllllllllllllllllllllllllllg+%4}}}}}}}}}}}}}}}}}}}}}}}}|#     ",
" )>3(}}}}}}}}}}}}}}}}}}}}}^%%%%%%%%={tlllllllllllllllllllllllllllg=%}}}}}}}}}}}}}}}}}}}}}}}}}_%     ",
" #39}}}}}}}}}}}}}}}}}}}}}}}|%%%%%%%%)follllllllllllllllllllllllllf@3}}}}}}}}}}}}}}}}}}}}}}}}}^%+    ",
")%1}}}}}}}}}}}}}}}}}}}}}}}}(%%%%%%%%${qllllllllllllllllllllllllll{@<}}}}}}}}}}}}}}}}}}}}}}}}}[%,    ",
"@%/}}}}}}}}}}}}}}}}}}}}}}}}}<%%%%%%%%=hllllllllllllllllllllllllll{@<}}}}}}}}}}}}}}}}}}}}}}}}}}8>-   ",
"@%}}}}}}}}}}}}}}}}}}}}}}}}}}/%%%%%%%%&{jlllllllllllllllllllllllll{#<}}}}}}}}}}}}}}}}}}}}}}}}}}/%!   ",
"@%9}}}}}}}}}}}}}}}}}}}}}}}}}}_%%%%%%%%{qllllllllllllllllllllllllo{#0}}}}}}}}}}}}}}}}}}}}}}}}}}}a%*  ",
"=%/}}}}}}}}}}}}}}}}}}}}}}}}}}4|%%%%%%%{qllllllllllllllllllllllllr{#1}}}}}}}}}}}}}}}}}}}}}}}}}}}}0%' ",
"+%2}}}}}}}}}}}}}}}}}}}}}}}}}}}9%%%%%%!{tllllllllllllllllllllllll-{%(}}}}}}}}}}}}}}}}}}}}}}}}}}}}4|>-",
"-%1}}}}}}}}}}}}}}}}}}}}}}}}}}}}(%%%%*-glllllllllllllllllllllllllp+%[}}}}}}}}}}}}}}}}}}}}}}}}}}}}}/%@",
" %0}}}}}}}}}}}}}}}}}}}}}}}}}}}}}_%'{{polllllllllllllllllllllllllh@|}}}}}}}}}}}}}}}}}}}}}}}}}}}}}}}8$",
" $<}}}}}}}}}}}}}}}}}}}}}}}}}}}}}}8&{pllllllllllllllllllllllllllr{#_}}}}}}}}}}}}}}}}}}}}}}}}}}}}}}}1%",
" $<}}}}}}}}}}}}}}}}}}}}}}}}}}}}}}43,{jlllllllllllllllllllllllllp-%2}}}}}}}}}}}}}}}}}}}}}}}}}}}}}}}1%",
";%a}}}}}}}}}}}}}}}}}}}}}}}}}}}}}}}/%'hollllllllllllllllllllllrn{,%}}}}}}}}}}}}}}}}}}}}}}}}}}}}}}}}|$",
"~%9}}}}}}}}}}}}}}}}}}}}}}}}}}}}}}}}1>-fjlllllllllllllllllllrg{)&%0}}}}}}}}}}}}}}}}}}}}}}}}}}}}}}40%~",
"#3}}}}}}}}}}}}}}}}}}}}}}}}}}}}}}}}}}|$+{gjlllllllllllllllmg{;*%%%^}}}}}}}}}}}}}}}}}}}}}}}}}}}}}(|%, ",
"%0}}}}}}}}}}}}}}}}}}}}}}}}}}}}}}}}}}/%%!){fsjollllllltmph{)*%%%%%9}}}}}}}}}}}}}}}}}}}}}}}}}}}(<%>'  ",
"%1}}}}}}}}}}}}}}}}}}}}}}}}}}}}}}}}}}}<%%%#=;{{{ggggf{{{)@$%%%%%%3}}}}}}}}}}}}}}}}}}}}}}}}}}(|%>@-   ",
"%1}}}}}}}}}}}}}}}}}}}}}}}}}}}}}}}}}}}(%%%%%%&!@@++~@,#>%%%%%%%%%<}}}}}}}}}}}}}}}}}}}}}}}}2|%>@-     ",
"%_}}}}}}}}}}}}}}}}}}}}}}}}}}}}}}}}}}}4%%%%%%%%%%%%%%%%%%%%%%%%%%1}}}}}}}}}}}}}}}}}}}}}}[<%>@-       ",
"#34}}}}}}}}}}}}}}}}}}}}}}}}}}}}}}}}}}}%%%%%%%%%%%%%%%%%%%%%%%%%%1}}}}}}}}}}}}}}}}}}}}}^%%,-         ",
"+%|2}}}}}}}}}}}}}}}}}}}}}}}}}}}}}}}}}}%%%%%%%%%%%%%%%%%%%%%%%%%%1}}}}}}}}}}}}}}}}}}}}_%&)           ",
" '>%301(/9}}}}}}}}}}}}}}}}}}}}}}}}}}}9%%%%%%%%%%%%%%%%%%%%%%%%%%1}}}}}}}}}}}}}}}}}}}_%*-            ",
"  -=!>%%%%%3<_^/}}}}}}}}}}}}}}}}}}}}}^%%%%%$!@'+-    ;+=@!#$%%%%a}}}}}}}}}}}}}}}}}}_%*              ",
"      ;+=@,#$%%%3_/}}}}}}}}}}}}}}}}}4|$@~+-                    &|}}}}}}}}}}}}}}}}}_%*               ",
"              +~!%%82}}}}}}}}}}}}}}}_%+                        =%^}}}}}}}}}}}}}}}_%&                ",
"                 -@>%|^4}}}}}}}}}}[0%,                          &39}}}}}}}}}}}}40%!-                ",
"                   -@$%%<1/[}}}[2_%%@                           )>39}}}}}}}}}}(3%,                  ",
"                      '*>%%%%%%%%%!)                             )>314}}}}}4(|%$+                   ",
"                         )=@@@@@'-                                ;#%%<0a<8%%$@-                    ",
"                                                                    +*&%%%#*'                       "};
