/* XPM */
static char * tux_fit_xpm[] = {
"20 24 150 2",
"  	c None",
". 	c #626262",
"+ 	c #3E3E3E",
"@ 	c #1F1F1F",
"# 	c #4B4B4B",
"$ 	c #6D6D6D",
"% 	c #5B5B5B",
"& 	c #202020",
"* 	c #6B6B6B",
"= 	c #252525",
"- 	c #4A4A4A",
"; 	c #7B7B7B",
"> 	c #888888",
", 	c #222222",
"' 	c #B7B7B7",
") 	c #BDBDBD",
"! 	c #262626",
"~ 	c #CBCBCB",
"{ 	c #D8D8D8",
"] 	c #6E6F6F",
"^ 	c #D7D7D7",
"/ 	c #787878",
"( 	c #242424",
"_ 	c #ABABAA",
": 	c #AD9261",
"< 	c #CA9F3A",
"[ 	c #B5955A",
"} 	c #BFBCB7",
"| 	c #666666",
"1 	c #B28A1B",
"2 	c #F8BE11",
"3 	c #F7BD11",
"4 	c #D9A716",
"5 	c #69521D",
"6 	c #9E8558",
"7 	c #D0A11E",
"8 	c #D9A714",
"9 	c #D3A218",
"0 	c #DFBB7E",
"a 	c #8C8883",
"b 	c #707070",
"c 	c #545454",
"d 	c #CACACA",
"e 	c #EAE1D4",
"f 	c #E5CAA0",
"g 	c #EBE2D7",
"h 	c #FEFEFE",
"i 	c #CFCFCF",
"j 	c #737373",
"k 	c #2A2A2A",
"l 	c #EEEEEE",
"m 	c #FFFFFF",
"n 	c #F8F8F8",
"o 	c #494949",
"p 	c #606060",
"q 	c #363636",
"r 	c #ACACAC",
"s 	c #575757",
"t 	c #717171",
"u 	c #4F4F4F",
"v 	c #D6D6D6",
"w 	c #EDEDED",
"x 	c #585858",
"y 	c #303030",
"z 	c #595959",
"A 	c #767676",
"B 	c #FDFDFD",
"C 	c #F2F2F2",
"D 	c #EAEAEA",
"E 	c #E9E9E9",
"F 	c #F0F0F0",
"G 	c #A7A7A7",
"H 	c #868686",
"I 	c #5C5C5C",
"J 	c #434343",
"K 	c #8B8B8B",
"L 	c #C3C3C3",
"M 	c #ECECEC",
"N 	c #E6E6E6",
"O 	c #FCFCFC",
"P 	c #E4E4E4",
"Q 	c #818181",
"R 	c #616161",
"S 	c #292929",
"T 	c #A2A2A2",
"U 	c #E8E8E8",
"V 	c #B4B4B4",
"W 	c #777777",
"X 	c #BCBCBC",
"Y 	c #F9F9F9",
"Z 	c #E7E7E7",
"` 	c #9C9C9C",
" .	c #8E7B5B",
"..	c #C29517",
"+.	c #958162",
"@.	c #E0E0E0",
"#.	c #DAD8D6",
"$.	c #977B45",
"%.	c #201F1F",
"&.	c #817A70",
"*.	c #9B896C",
"=.	c #DFAC24",
"-.	c #EAB313",
";.	c #4E4536",
">.	c #D0BEA5",
",.	c #EAB413",
"'.	c #97741B",
").	c #C49617",
"!.	c #F5BB11",
"~.	c #BC974D",
"{.	c #B99759",
"].	c #F6BC11",
"^.	c #B38919",
"/.	c #C8C8C8",
"(.	c #D1B58A",
"_.	c #DAA81A",
":.	c #C7A158",
"<.	c #F2BA12",
"[.	c #755E2F",
"}.	c #D1AF74",
"|.	c #B49456",
"1.	c #C49B46",
"2.	c #E7B222",
"3.	c #D6D3D0",
"4.	c #D2D2D2",
"5.	c #DDAB26",
"6.	c #BD9432",
"7.	c #CB9C1D",
"8.	c #B58D2C",
"9.	c #949494",
"0.	c #B2B2B2",
"a.	c #ADADAD",
"b.	c #423826",
"c.	c #F5BC11",
"d.	c #DDAB24",
"e.	c #B09870",
"f.	c #B7975E",
"g.	c #C0973D",
"h.	c #D3A42E",
"i.	c #B7903B",
"j.	c #4C4C4C",
"k.	c #544834",
"l.	c #F4BB11",
"m.	c #D0A126",
"n.	c #8F7A54",
"o.	c #BD9A58",
"p.	c #B7985F",
"q.	c #B4965F",
"r.	c #CB9C20",
"s.	c #BC9955",
"                . + @ # $               ",
"              % @ @ @ @ & *             ",
"              = @ @ @ @ @ -             ",
"              ; > , ' ) ! !             ",
"              ~ { ] ^ ^ / (             ",
"              _ : < [ } | ,             ",
"              1 2 2 3 4 5 ,             ",
"              6 7 8 9 0 a @ b           ",
"            c d e f g h i @ +           ",
"          j k l m m m m n o @ p         ",
"          q > m m m m m m r s & t       ",
"        u $ v m m m m m m w x * y       ",
"      z j A B h C D E F B m G H ( I     ",
"      J K L h M N N N N D O P Q R S     ",
"      , T U C N N N N N N w B V W @     ",
"      @ X Y Z N N N N N N N i W ` *     ",
"     ...+.@.Z N N N N N N #.$.@ %.&.    ",
"  *.=.2 -.;.X Z N N N N N >.,.'.).!.~.  ",
"{.].2 2 2 ^.( /.N N N N N (.2 2 2 2 _.  ",
":.2 2 2 2 <.[.) N N N N U }.2 2 2 2 3 |.",
"1.2 2 2 2 2 2.3.Z N N U 4.5.2 2 2 2 2 6.",
"7.2 2 2 2 2 2 8.9.0.a.Q b.c.2 2 2 d.e.  ",
"  f.g.h.c.2 2 i.p b   j.k.l.2 2 m.      ",
"        n.o.p.            q.r.s.        "};
