/* XPM */
static char * haskell_logo_icon_xpm[] = {
"24 24 3 1",
" 	c None",
".	c #999999",
"+	c #666666",
"                        ",
"                        ",
"                        ",
" ...  ++++              ",
" .... +++++             ",
" ..... ++++             ",
"  ....  ++++            ",
"   .... +++++           ",
"   ..... ++++  .........",
"    ....  ++++ .........",
"     .... +++++ ........",
"     ..... ++++         ",
"     ..... +++++        ",
"     .... +++++++ ......",
"    ....  +++++++  .....",
"   ....  ++++ ++++      ",
"   .... +++++ +++++     ",
"  ....  ++++   ++++     ",
" ....  ++++     ++++    ",
" .... ++++      +++++   ",
"                        ",
"                        ",
"                        ",
"                        "};
