/* XPM */
static char * haskell_icon_xpm[] = {
"32 32 155 2",
"  	c None",
". 	c #000000",
"+ 	c #453B62",
"@ 	c #615286",
"# 	c #453A62",
"$ 	c #5E5086",
"% 	c #453762",
"& 	c #5E5384",
"* 	c #463A62",
"= 	c #443B61",
"- 	c #5E4D87",
"; 	c #8F4E8B",
"> 	c #804F89",
", 	c #443B62",
"' 	c #615087",
") 	c #55558E",
"! 	c #5F5186",
"~ 	c #654E82",
"{ 	c #453B62",
"] 	c #453B62",
"^ 	c #453A62",
"/ 	c #453A62",
"( 	c #3F355A",
"_ 	c #5F5187",
": 	c #5F5186",
"< 	c #5F5186",
"[ 	c #5F5086",
"} 	c #463A62",
"| 	c #453A62",
"1 	c #453A62",
"2 	c #453A62",
"3 	c #453A62",
"4 	c #453A62",
"5 	c #443961",
"6 	c #605289",
"7 	c #5E5086",
"8 	c #5E5086",
"9 	c #5E5086",
"0 	c #5E5086",
"a 	c #5E5086",
"b 	c #453A62",
"c 	c #453A62",
"d 	c #453A62",
"e 	c #473B64",
"f 	c #5E5086",
"g 	c #5E5086",
"h 	c #5E5086",
"i 	c #5E5086",
"j 	c #453A62",
"k 	c #453A62",
"l 	c #453A62",
"m 	c #5C4E83",
"n 	c #5E5086",
"o 	c #5E5086",
"p 	c #5E5086",
"q 	c #453A62",
"r 	c #453A62",
"s 	c #453A62",
"t 	c #443961",
"u 	c #5F5187",
"v 	c #5E5086",
"w 	c #5E5086",
"x 	c #5E5086",
"y 	c #453A62",
"z 	c #453A62",
"A 	c #463B63",
"B 	c #5E5086",
"C 	c #E34B91",
"D 	c #8F4E8A",
"E 	c #8F4E8B",
"F 	c #8F4E8B",
"G 	c #8F4E8B",
"H 	c #8F4E8B",
"I 	c #5F5188",
"J 	c #635087",
"K 	c #8F4E8B",
"L 	c #8F4E8B",
"M 	c #8F4E8B",
"N 	c #8F4E8B",
"O 	c #8F4E8B",
"P 	c #5D5086",
"Q 	c #8F4E8B",
"R 	c #8F4E8B",
"S 	c #8F4E8B",
"T 	c #8F4E8B",
"U 	c #5C5086",
"V 	c #914E8B",
"W 	c #8F4E8B",
"X 	c #8F4E8B",
"Y 	c #8F4E8B",
"Z 	c #8F4E8B",
"` 	c #8F4E8B",
" .	c #453A62",
"..	c #453A62",
"+.	c #443960",
"@.	c #5E5086",
"#.	c #695087",
"$.	c #904E8B",
"%.	c #8F4E8B",
"&.	c #453A62",
"*.	c #8F4E8B",
"=.	c #8F4E8B",
"-.	c #453A62",
";.	c #453A62",
">.	c #453A62",
",.	c #5C4E83",
"'.	c #5C5086",
").	c #914E8B",
"!.	c #8F4E8B",
"~.	c #453A62",
"{.	c #453A62",
"].	c #453A62",
"^.	c #463B64",
"/.	c #5E5086",
"(.	c #675087",
"_.	c #8F4E8B",
":.	c #453A62",
"<.	c #443960",
"[.	c #5E5086",
"}.	c #5E5086",
"|.	c #8F4E8B",
"1.	c #5E5086",
"2.	c #5E5086",
"3.	c #5E5086",
"4.	c #934E8B",
"5.	c #5E5086",
"6.	c #5E5086",
"7.	c #443961",
"8.	c #5F5085",
"9.	c #5E5086",
"0.	c #5E5086",
"a.	c #5E5086",
"b.	c #5E5086",
"c.	c #453A62",
"d.	c #453A62",
"e.	c #473C64",
"f.	c #5E5086",
"g.	c #5E5086",
"h.	c #5E5086",
"i.	c #5E5086",
"j.	c #453A62",
"k.	c #453A62",
"l.	c #5D5086",
"m.	c #5E5086",
"n.	c #5E5086",
"o.	c #5E5086",
"p.	c #5E5086",
"q.	c #5E5086",
"r.	c #453A62",
"s.	c #5F5086",
"t.	c #5F5186",
"u.	c #453A62",
"v.	c #5E5086",
"w.	c #8F4E8B",
"x.	c #FFFFFF",
"                                                                ",
"                                                                ",
"                                                                ",
"                                                                ",
"                                                                ",
"                                                                ",
"      1 2 3 4     7 8 9 8 0                                     ",
"      c u.u.u.d   f g v.v.h                                     ",
"        k u.u.u.l   n v.v.v.o                                   ",
"        r u.u.u.s     v v.v.v.w                                 ",
"          z u.u.u.d     g v.v.h                                 ",
"            k u.u.u.l   n v.v.v.o                               ",
"            r u.u.u.s     v v.v.v.w   K L M M M M M M M L N     ",
"              z u.u.u.d     g v.v.h     R w.w.w.w.w.w.w.w.S     ",
"                k u.u.u.l   n v.v.v.o     W X Y Y Y Y Y Z `     ",
"                ..u.u.u.s     @.v.v.v.w                         ",
"                &.u.u.u.s     @.v.v.v.h                         ",
"                -.u.u.;.>.  n v.v.v.v.v.o     !.X Y Y Y Z `     ",
"              {.u.u.u.].  /.g v.v.v.v.v.v.w   _.w.w.w.w.w.S     ",
"            :.u.u.u.s     v v.v.g [.}.v.v.h     |.Y M M L N     ",
"            -.u.u.;.>.  n v.v.v.1.  3.v.v.v.o                   ",
"          {.u.u.u.].  /.g v.v.h       v v.v.v.6.                ",
"        :.u.u.u.s     v v.v.v.w       9.g v.v.h                 ",
"        -.u.u.;.>.  n v.v.v.0.          n v.v.v.o               ",
"      d.u.u.u.].  f.g v.v.h               v v.v.v.h.            ",
"      1 2 3 4     7 8 9 8 0                 n.9 o.p.            ",
"                                                                ",
"                                                                ",
"                                                                ",
"                                                                ",
"                                                                ",
"                                                                "};
