/* XPM */
static char * haskell_svgrepo_com_xpm[] = {
"40 40 4 1",
" 	c None",
".	c #484848",
"+	c #474747",
"@	c #494949",
"                                        ",
"                                        ",
"                                        ",
"                                        ",
"                                        ",
"                                        ",
"                                        ",
"                                        ",
"                                        ",
"                                        ",
"       ...+  +...                       ",
"       ..... .....                      ",
"       .....  .....                     ",
"        .....  ....+                    ",
"         ..... .....                    ",
"         +....  .....                   ",
"          ..... @....+  ..........      ",
"           ..... .....  ..........      ",
"           .....  .....  .........      ",
"            .....  .....  .......       ",
"            .....  .....                ",
"            ..... .......  .......      ",
"           .....  ........ .......      ",
"          .....  .........  ......      ",
"          ..... ...........  ....       ",
"         .....  ....@  .....            ",
"        ...... .....   .....            ",
"        ..... .....     .....           ",
"       .....  .....      ....+          ",
"      .....  .....       .....          ",
"                                        ",
"                                        ",
"                                        ",
"                                        ",
"                                        ",
"                                        ",
"                                        ",
"                                        ",
"                                        ",
"                                        "};
