/* XPM */
static char * python_bar_2_xpm[] = {
"42 42 215 2",
"  	c #FFFFFF",
". 	c #F2F2F2",
"+ 	c #EEEEEE",
"@ 	c #F7F7F7",
"# 	c #FAFAFA",
"$ 	c #EFEFEF",
"% 	c #F1F1F1",
"& 	c #F9F9F9",
"* 	c #F8F8F8",
"= 	c #F0F0F0",
"- 	c #FBFBFB",
"; 	c #F6F6F6",
"> 	c #F5F5F5",
", 	c #F4F4F4",
"' 	c #FEFEFE",
") 	c #FCFCFC",
"! 	c #F3F3F3",
"~ 	c #EFF4F8",
"{ 	c #CCDDEE",
"] 	c #ADC8E5",
"^ 	c #94B9DE",
"/ 	c #8EB5DB",
"( 	c #8EB6DC",
"_ 	c #94BADE",
": 	c #ACC8E6",
"< 	c #F0F4F8",
"[ 	c #EEEEED",
"} 	c #F2F4F5",
"| 	c #B0C8E2",
"1 	c #5D9FD5",
"2 	c #4C98D2",
"3 	c #4896D1",
"4 	c #4796D1",
"5 	c #5C9FD4",
"6 	c #AFC9E2",
"7 	c #FAFCFC",
"8 	c #97BCE0",
"9 	c #4A97D1",
"0 	c #579CD3",
"a 	c #5C9ED4",
"b 	c #4A97D2",
"c 	c #98BCE0",
"d 	c #FAFCFD",
"e 	c #C4D8EC",
"f 	c #4997D1",
"g 	c #64A2D6",
"h 	c #F0F5F8",
"i 	c #F6F9FB",
"j 	c #7BACD9",
"k 	c #4997D2",
"l 	c #C5D8EC",
"m 	c #EFEFF0",
"n 	c #83B0DB",
"o 	c #7BACD7",
"p 	c #FDFDFC",
"q 	c #FDFEFD",
"r 	c #96B9DD",
"s 	c #6BA3D5",
"t 	c #4693CD",
"u 	c #99B1CB",
"v 	c #A3B8CF",
"w 	c #4892CA",
"x 	c #6AA3D5",
"y 	c #FDFDFD",
"z 	c #4694CF",
"A 	c #4693CE",
"B 	c #FCFDFC",
"C 	c #C5D9EC",
"D 	c #87B3DD",
"E 	c #73A8D8",
"F 	c #4F98D2",
"G 	c #6E9EC8",
"H 	c #FCD17A",
"I 	c #FDD079",
"J 	c #FCD179",
"K 	c #FED68C",
"L 	c #FEE9C6",
"M 	c #FDFDFA",
"N 	c #4B98D2",
"O 	c #6F9CC5",
"P 	c #FFC850",
"Q 	c #FFC851",
"R 	c #FEC955",
"S 	c #FEDB9A",
"T 	c #F7F5F2",
"U 	c #AFC8E2",
"V 	c #4996D1",
"W 	c #6E9CC5",
"X 	c #FEC952",
"Y 	c #F8DEB1",
"Z 	c #EFEEEE",
"` 	c #FDCB60",
" .	c #FCF8F1",
"..	c #CBDBEE",
"+.	c #749DC4",
"@.	c #FFC951",
"#.	c #FEEBCC",
"$.	c #FEFFFE",
"%.	c #A9C6E4",
"&.	c #98A3AF",
"*.	c #FEC851",
"=.	c #FEDFAB",
"-.	c #8FB5DC",
";.	c #4796D2",
">.	c #5697CC",
",.	c #D9B572",
"'.	c #FCD593",
").	c #F4F5F5",
"!.	c #87B0D9",
"~.	c #4996D0",
"{.	c #4B96CE",
"].	c #4B96CF",
"^.	c #5797CB",
"/.	c #849BB2",
"(.	c #CCAB70",
"_.	c #FCC651",
":.	c #FAD28A",
"<.	c #6498C6",
"[.	c #B0A38B",
"}.	c #D6AF5E",
"|.	c #DDB153",
"1.	c #E1B452",
"2.	c #EFBD50",
"3.	c #FDC851",
"4.	c #8EB4DB",
"5.	c #6198C7",
"6.	c #D8B164",
"7.	c #FCC650",
"8.	c #FBD491",
"9.	c #F5F5F4",
"0.	c #A3C0DF",
"a.	c #B7A993",
"b.	c #FBDAA6",
"c.	c #C2D3E5",
"d.	c #E5BD70",
"e.	c #F7E2C3",
"f.	c #E7EAEE",
"g.	c #4F98D1",
"h.	c #4696D1",
"i.	c #EEC268",
"j.	c #FCC857",
"k.	c #F2EEE7",
"l.	c #EDEDED",
"m.	c #97B3D0",
"n.	c #4795D2",
"o.	c #EEC369",
"p.	c #E9CC9A",
"q.	c #E5E6E8",
"r.	c #7DA7D1",
"s.	c #F2CA81",
"t.	c #EAE7E6",
"u.	c #E8E9EB",
"v.	c #A2B8D0",
"w.	c #6FA2D0",
"x.	c #5E9BCF",
"y.	c #5D9BCF",
"z.	c #EFC369",
"A.	c #FDC853",
"B.	c #F7C765",
"C.	c #F8C764",
"D.	c #F7C764",
"E.	c #F5C974",
"F.	c #E6CCA3",
"G.	c #ECEAE9",
"H.	c #F7F7F6",
"I.	c #EEEEEF",
"J.	c #E9E9E9",
"K.	c #DFDFDF",
"L.	c #E5E5E4",
"M.	c #E4E4E4",
"N.	c #F9CA6A",
"O.	c #F9CA6B",
"P.	c #E3E3E2",
"Q.	c #E5E4E4",
"R.	c #DEDFDF",
"S.	c #FCCD70",
"T.	c #FCCE70",
"U.	c #FEC954",
"V.	c #FDDEAA",
"W.	c #FEDBA1",
"X.	c #FBCF81",
"Y.	c #FED99A",
"Z.	c #FEFEFD",
"`.	c #FDD382",
" +	c #F2DAB5",
".+	c #F5CC7D",
"++	c #FBFAF6",
"@+	c #FAF6F1",
"#+	c #F7C869",
"$+	c #FEC951",
"%+	c #F2DBB6",
"&+	c #F2F2EF",
"*+	c #E1B55B",
"=+	c #E3B657",
"-+	c #FDC751",
";+	c #F3F2F0",
">+	c #E4E2E0",
",+	c #E5C692",
"'+	c #FBC858",
")+	c #E4C692",
"!+	c #E5E5E5",
"~+	c #DED9D2",
"{+	c #E4CCA8",
"]+	c #EDCA8E",
"^+	c #F0C77D",
"/+	c #F0C677",
"(+	c #F0C87D",
"_+	c #E3CBA8",
":+	c #FAFBFB",
"<+	c #F1F2F2",
"[+	c #E3E3E3",
"}+	c #DCDCDC",
"|+	c #F1F1F2",
"1+	c #FAFBFA",
"2+	c #FCFCFB",
"      . + + @     # + + $       % + + &     * + + %       = + + #     @ + + .       ",
"      . + + @     # + + $       % + + &     * + + %       = + + #     @ + + .       ",
"      . + + @     # + + $       % + + &     * + + %       $ + + #     @ + + .       ",
". . . & - - ; . . > - - # . . . # - - ; . . ; - - # . . . # - - > . . ; - - & . . . ",
"+ + + -     ; + + ,     ' + + + )     > + + >     ) + + + '     ! + + ;     - + + + ",
"+ + + -     ; + + ,     ' + + + ~ { ] ^ / ( _ : { < [ + + '     ! + + ;     - + + + ",
"@ @ @ ; ; ; @ @ @ @ ; ; ; @ } | 1 2 3 4 4 4 4 3 2 5 6 } @ ; ; ; @ @ @ @ ; ; ; @ @ @ ",
"      . + + @     # + + $ 7 8 9 0 a 4 4 4 4 4 4 4 4 b c d $ + + #     @ + + .       ",
"      . + + @     # + + $ e f g h i j 4 4 4 4 4 4 4 4 k l m + + #     @ + + .       ",
"# # # > , , @ # # * ! , , n 4 o p q r 4 4 4 4 4 4 4 4 4 n , , , * # # @ ! , > # # # ",
"+ + + -     ; + + !     ' s 4 t u v w 4 4 4 4 4 4 4 4 4 x y     ! + + ;     - + + + ",
"+ + + -     ; + + ,     ' x 4 4 z A 4 4 4 4 4 4 4 4 4 4 x q     ! + + ;     - + + + ",
"$ $ $ # ' ' ; $ $ , ' ' y s 4 4 4 4 4 4 4 4 4 4 4 4 4 4 x B ' ' , $ $ ; ' ' - $ $ $ ",
"      . + + @ 7 C D E E E F 4 4 4 4 4 4 4 4 4 4 4 4 4 4 G H I J K L M @ + + .       ",
"      . + + } 8 N 4 4 4 4 4 4 4 4 4 4 4 4 4 4 4 4 4 4 4 O P Q Q Q R S T + + .       ",
"      . + + U V 3 4 4 4 4 4 4 4 4 4 4 4 4 4 4 4 4 4 4 4 W Q Q Q Q Q X Y Z + .       ",
"% % % # ) < 0 3 4 4 4 4 4 4 4 4 4 4 4 4 4 4 4 4 4 4 4 4 W Q Q Q Q Q Q `  .) # % % % ",
"+ + + -   ..4 4 4 4 4 4 4 4 4 4 4 4 4 4 4 4 4 4 4 4 4 4 +.P Q Q Q Q Q @.#.$.- + + + ",
"+ + + -   %.4 4 4 4 4 4 4 4 4 4 4 4 4 4 4 4 4 4 4 4 4 4 &.*.Q Q Q Q Q Q =.$.- + + + ",
"& & & ; > -.;.4 4 4 4 4 4 4 4 4 4 4 4 4 4 4 4 4 4 4 ;.>.,.Q Q Q Q Q Q Q '.).; & & & ",
"      . + !.3 4 4 4 4 4 4 4 4 4 ~.{.{.].].].].].].^./.(._.*.Q Q Q Q Q Q :.+ .       ",
"      . + !.4 4 4 4 4 4 4 4 <.[.}.|.|.|.|.|.|.|.|.1.2.3.Q Q Q Q Q Q Q Q :.+ .       ",
"* * * > > 4.4 4 4 4 4 4 4 5.6.7.Q Q Q Q Q Q Q Q Q Q Q Q Q Q Q Q Q Q Q Q 8.9.; * * * ",
"+ + + -   0.4 4 4 4 4 4 4 a.*.*.Q Q Q Q Q Q Q Q Q Q Q Q Q Q Q Q Q Q Q Q b.$.- + + + ",
"+ + + -   c.4 4 4 4 4 4 4 d.Q Q Q Q Q Q Q Q Q Q Q Q Q Q Q Q Q Q Q Q Q Q e.' - + + + ",
"% % % # ) f.g.4 4 4 4 4 h.i.Q Q Q Q Q Q Q Q Q Q Q Q Q Q Q Q Q Q Q Q Q j.k.) # % % % ",
"      . + l.m.n.4 4 4 4 h.o.Q Q Q Q Q Q Q Q Q Q Q Q Q Q Q Q Q Q Q Q Q p.l.+ .       ",
"      . + + q.r.;.4 4 4 h.o.Q Q Q Q Q Q Q Q Q Q Q Q Q Q Q Q Q Q Q Q s.t.+ + .       ",
"      . + + @ u.v.w.x.x.y.z.Q Q Q Q Q Q Q Q Q Q Q Q Q Q A.B.C.D.E.F.G.H.I.+ .       ",
"$ $ $ # ' ' ; $ J.K.L.L.M.N.Q Q Q Q Q Q Q Q Q Q Q Q Q Q O.P.Q.M.R.J.$ ; ' ' - $ $ $ ",
"+ + + -     ; + + ,     ' S.Q Q Q Q Q Q Q Q Q Q Q Q Q Q S.q     ! + + ;     - + + + ",
"+ + + -     ; + + ,     ' T.Q Q Q Q Q Q Q Q Q U.V.W.*.Q S.q     ! + + ;     - + + + ",
"# # # > ! ! @ # # * ! ! , X.Q Q Q Q Q Q Q Q Q Y.Z.Z.`.Q X., ! ! * # # @ ! ! > # # # ",
"      . + + @     # + + $  +*.Q Q Q Q Q Q Q Q .+++@+#+$+%+$ + + #     @ + + .       ",
"      . + + @     # + + $ &+s.*.Q Q Q Q Q Q Q 7.*+=+-+s.;+$ + + #     @ + + .       ",
"@ @ @ ; ; ; @ @ @ @ ; ; ; @ >+,+'+Q Q Q Q Q Q Q Q j.)+>+H.; ; ; @ @ @ @ ; ; ; @ @ @ ",
"+ + + -     ; + + ,     ' + + !+~+{+]+^+/+/+(+]+_+~+!++ I.'     ! + + ;     - + + + ",
"+ + + -     ; + + ,     ' + + + ) :+<+[+}+}+[+|+1+2++ + + '     ! + + ;     - + + + ",
". . . & - - ; . . > - - - . . . # - - ; . . ; - - # . . . # - - > . . ; - - & . . . ",
"      . + + @     # + + $       % + + &     * + + %       = + + #     @ + + .       ",
"      . + + @     # + + $       % + + &     * + + %       = + + #     @ + + .       ",
"      . + + @     # + + $     ' % + + *     * + + %     ' = + + #     @ + + .       "};
